<?xml version="1.0"?>
<svg xmlns="http://www.w3.org/2000/svg" xmlns:xlink="http://www.w3.org/1999/xlink" xmlns:svgjs="http://svgjs.com/svgjs" version="1.1" width="512" height="512" x="0" y="0" viewBox="0 0 55 60" style="enable-background:new 0 0 512 512" xml:space="preserve" class=""><g><g xmlns="http://www.w3.org/2000/svg" fill="#dd352e"><path d="m44 41c-.256 0-.512-.098-.707-.293-.391-.391-.391-1.023 0-1.414l10-10c.39-.391 1.024-.391 1.414 0 .391.391.391 1.023 0 1.414l-10 10c-.195.195-.451.293-.707.293z" fill="#191351" data-original="#dd352e" style="" class=""/><path d="m54 31c-.256 0-.512-.098-.707-.293l-10-10c-.391-.391-.391-1.023 0-1.414.39-.391 1.024-.391 1.414 0l10 10c.391.391.391 1.023 0 1.414-.195.195-.451.293-.707.293z" fill="#191351" data-original="#dd352e" style="" class=""/><path d="m54 31h-34c-.552 0-1-.448-1-1s.448-1 1-1h34c.552 0 1 .448 1 1s-.448 1-1 1z" fill="#191351" data-original="#dd352e" style="" class=""/></g><path xmlns="http://www.w3.org/2000/svg" d="m27.282 60h-18.564c-4.807 0-8.718-3.911-8.718-8.718v-42.564c0-4.807 3.911-8.718 8.718-8.718h18.565c4.806 0 8.717 3.911 8.717 8.718v15.282c0 .552-.448 1-1 1s-1-.448-1-1v-15.282c0-3.704-3.013-6.718-6.718-6.718h-18.564c-3.704 0-6.718 3.014-6.718 6.718v42.564c0 3.704 3.014 6.718 6.718 6.718h18.565c3.704 0 6.717-3.014 6.717-6.718v-15.282c0-.552.448-1 1-1s1 .448 1 1v15.283c0 4.806-3.911 8.717-8.718 8.717z" fill="#ebe316" data-original="#ebba16" style="" class=""/></g></svg>
