<svg height="512" viewBox="0 0 512 512" width="512" xmlns="http://www.w3.org/2000/svg"><g id="Filled_outline" data-name="Filled outline"><path d="m136 352 24 40 160-128-48-24z" fill="#2b4266"/><path d="m264 240-30.386-20.257a69.917 69.917 0 0 0 -38.784-11.743 69.918 69.918 0 0 0 -46.773 17.949l-60.057 54.051 24 40 80-72 43.41 32.558a77.217 77.217 0 0 0 46.327 15.442h4.022a77.212 77.212 0 0 0 74.241-56z" fill="#34507b"/><path d="m488 240h-48l-7.38-32-16.62-72h-40v40l-8 88-56.57-13.05-15.4-3.56-32.03-7.39 2.62-15.73 5.38-32.27-2.29-16-2.28-16-3.43-24v-48h149.54a55.4 55.4 0 0 1 33.23 11.08c.49.37.97.74 1.44 1.12a55.32 55.32 0 0 1 19.76 32.97l14.03 74.83z" fill="#f35244"/><path d="m266.62 224.27a498.73 498.73 0 0 0 109.38-59.41v11.14l-8 88-56.57-13.05-15.4-3.56-32.03-7.39z" fill="#e64c3f"/><path d="m488 240h-48l-7.38-32-16.62-72h-3.94a453.261 453.261 0 0 0 36.15-35.8 55.32 55.32 0 0 1 19.76 32.97l14.03 74.83z" fill="#e64c3f"/><path d="m264 88v48h-96l-51.551 15.35-31.72 8.65-16-40 91.271-32z" fill="#f35244"/><path d="m31.482 275.638 123.734 192.476a43.3 43.3 0 0 0 36.425 19.886h3.547a43.3 43.3 0 0 0 33.812-16.251 43.3 43.3 0 0 0 3.106-49.678l-120.473-196.564a47.106 47.106 0 0 0 -45.367-22.2l-.36.04a47.108 47.108 0 0 0 -41.906 46.817 47.1 47.1 0 0 0 7.482 25.474z" fill="#f35244"/><path d="m68.729 120-39.429 19.716a9.58 9.58 0 0 0 -4.285 12.853 9.581 9.581 0 0 0 11.6 4.8l16.114-5.369-2.7 2.7a10.4 10.4 0 0 0 -1.947 12 10.4 10.4 0 0 0 13.947 4.649l22.7-11.349z" fill="#2b4266"/><path d="m116.449 151.35-31.72 8.65-16-40 30-10z" fill="#34507b"/><path d="m488 240h-48l-7.38-32h49.38z" fill="#34507b"/><path d="m440 240-6.481 32.4a10.141 10.141 0 0 0 5.41 11.06 10.142 10.142 0 0 0 13.607-4.535l3.464-6.925v8a16 16 0 0 0 16 16 16 16 0 0 0 16-16v-40z" fill="#2b4266"/><path d="m72 272 24-24 16 64 16-16 16 64 24-8 8 104-24-72-16 8-32-64-8 8z" fill="#ffb531"/><path d="m312 160-49.3-35.214a16 16 0 0 1 -6.7-13.02v-39.766a16 16 0 0 1 16-16h72a16 16 0 0 1 16 16v33.373a16 16 0 0 1 -4.686 11.313z" fill="#ffb531"/><path d="m280 144h24a24 24 0 0 0 24-24v-48h-72v48a24 24 0 0 0 24 24z" fill="#fec9a3"/><path d="m328 84v16a12 12 0 0 1 -12 12h-28l-8-8-8 8h-12a11.864 11.864 0 0 1 -4.1-.72 11.993 11.993 0 0 1 -7.9-11.28v-16a12 12 0 0 1 12-12h56a12 12 0 0 1 12 12z" fill="#348fd9"/><path d="m328 84v16a12 12 0 0 1 -12 12h-28l-8-8-8 8h-12a11.864 11.864 0 0 1 -4.1-.72 456.089 456.089 0 0 0 55.97-39.28h4.13a12 12 0 0 1 12 12z" fill="#3086cd"/><path d="m328 64v8h-80v-8a39.99 39.99 0 0 1 68.28-28.28c.59.59 1.16 1.19 1.7 1.82a39.794 39.794 0 0 1 10.02 26.46z" fill="#34507b"/><path d="m495.983 239.66c0-.118-.008-.235-.018-.353-.017-.2-.045-.39-.076-.583-.011-.066-.014-.133-.026-.2l-.024-.124v-.02l-20-106.684a63.387 63.387 0 0 0 -62.299-51.696h-45.54v-8a24.028 24.028 0 0 0 -24-24h-10.752a48 48 0 0 0 -93.248 16v8a7.959 7.959 0 0 0 1.444 4.577 19.864 19.864 0 0 0 -1.444 7.423v16a19.96 19.96 0 0 0 8 15.962v4.038a32 32 0 0 0 1.022 8h-81.022a7.988 7.988 0 0 0 -2.283.333l-44.717 13.316-11.735-27.382 52.097-18.267h62.638v-16h-64a8.009 8.009 0 0 0 -2.647.45l-91.27 32c-.03.01-.057.025-.087.036-.1.037-.2.08-.3.122s-.213.083-.317.131c-.046.021-.091.044-.137.066-.029.015-.06.025-.09.04l-39.432 19.716a17.58 17.58 0 0 0 13.422 32.4l.065-.023a18.379 18.379 0 0 0 26.4 13.566l21.993-11 30.957-8.443c.06-.015.119-.033.178-.05l50.431-15.011h87.9l6.841 47.906-5.762 34.575-20.1-13.4a77.9 77.9 0 0 0 -95.336 6.919l-6.725 6.05 10.7 11.894 6.728-6.051a61.911 61.911 0 0 1 75.759-5.5l30.39 20.26a8 8 0 0 0 2.639 1.147l75.008 17.309a68.813 68.813 0 0 1 -51.448 22.891h-4.02c-.524 0-1.048-.01-1.536-.018a68.784 68.784 0 0 1 -40-13.824l-43.404-32.558a8 8 0 0 0 -10.153.453l-35.762 32.187-32.432-52.915a55.316 55.316 0 0 0 -53.073-25.973l-.358.04a55.109 55.109 0 0 0 -40.271 84.572l123.735 192.476a51.1 51.1 0 0 0 43.155 23.56h3.547a51.3 51.3 0 0 0 43.74-78.11l-32.4-52.862 76.284-61.028h2.948a84.733 84.733 0 0 0 68.779-34.9l11.661 2.7a8 8 0 0 0 9.765-7.07l8-88c.022-.242.033-.483.033-.725v-32.005h25.636l22.181 96.12-6.143 30.715a18.143 18.143 0 0 0 23.528 20.765c.507-.169 1-.359 1.49-.569a24 24 0 0 0 45.31-11.031v-40c0-.115-.012-.227-.017-.34zm-406.475-89.255-10.2-25.5 14.966-4.989 11.2 26.134zm-31.059 13.795a2.4 2.4 0 0 1 -3.213-1.07 2.394 2.394 0 0 1 .449-2.767l2.7-2.7a8 8 0 0 0 -8.185-13.253l-16.116 5.373a1.58 1.58 0 0 1 -1.208-2.912l31.654-15.827 10.037 25.093zm134.012 94.153 23.38 17.535-42.495 35-13.958-22.772zm30.293 208.4a35.127 35.127 0 0 1 -27.566 13.247h-3.547a35.16 35.16 0 0 1 -29.7-16.212l-123.73-192.476a39.108 39.108 0 0 1 28.58-60.012l.358-.04a39.245 39.245 0 0 1 37.663 18.433l120.475 196.558a35.393 35.393 0 0 1 -2.533 40.5zm-40.966-142.093 47.226-38.9 1.6 1.2a84.82 84.82 0 0 0 29.92 14.375l-62.434 49.944zm260.887-108.66h32.686l3 16h-32zm-98.675-152a8.009 8.009 0 0 1 8 8v33.37a7.951 7.951 0 0 1 -2.347 5.663l-14.064 14.067a32.084 32.084 0 0 0 .411-5.1v-56zm-74.479 68.081a15.556 15.556 0 0 1 -1.444-1.421 15.947 15.947 0 0 1 -4.077-10.66h8a8 8 0 0 0 5.657-2.343l2.343-2.344 2.343 2.344a8 8 0 0 0 5.657 2.343h28a20.047 20.047 0 0 0 4-.4v.4a16.019 16.019 0 0 1 -16 16h-24a16.023 16.023 0 0 1 -10.479-3.919zm50.479-48.081v16a4 4 0 0 1 -4 4h-24.687l-5.656-5.657a8 8 0 0 0 -11.314 0l-5.656 5.657h-8.687a4 4 0 0 1 -4-4v-16a4 4 0 0 1 4-4h56a4 4 0 0 1 4 4zm-58.149-38.41 2.994 5.988 14.31-7.156-4.7-9.4a31.913 31.913 0 0 1 27.094 0l-4.7 9.4 14.31 7.156 2.994-5.988a31.811 31.811 0 0 1 5.847 18.41h-64a31.811 31.811 0 0 1 5.851-18.41zm18.068 145.278-2.119-14.868h18.2v-16h-20.489l-1.215-8.514a31.9 31.9 0 0 0 5.704.514h7.036l16.964 12.117v27.315l-6.858 48.005-24.014-5.537 6.763-40.58a7.968 7.968 0 0 0 .028-2.452zm136.081-62.868h-40a8 8 0 0 0 -8 8v24h-32v16h31.967l-7.1 78.144-48.074-11.1 7.13-49.916a7.939 7.939 0 0 0 .077-1.128v-28.686l40.967-40.966a23.858 23.858 0 0 0 7.033-16.978v-9.37h45.54a47.385 47.385 0 0 1 46.567 38.645l12.254 65.355h-33.381l-15.18-65.8a8 8 0 0 0 -7.8-6.2zm64 152a8 8 0 0 1 -16 0v-8a8 8 0 0 0 -15.155-3.578l-3.465 6.929a2.141 2.141 0 0 1 -2.874.957 2.144 2.144 0 0 1 -1.142-2.334l5.2-25.974h33.436z"/><path d="m98.135 240.29a8 8 0 0 0 -7.792 2.053l-24 24a8 8 0 0 0 -1.834 8.466l24 64a8 8 0 0 0 13.148 2.848l.152-.152 27.036 54.073a8 8 0 0 0 10.733 3.577l7.75-3.875 21.083 63.25a8 8 0 0 0 15.566-3.143l-8-104a8 8 0 0 0 -10.507-6.977l-15.8 5.269-13.9-55.619a8 8 0 0 0 -13.418-3.717l-6.009 6.01-12.582-50.293a8 8 0 0 0 -5.626-5.77zm11.73 79.42a8 8 0 0 0 7.792-2.053l6.009-6.01 12.573 50.293a8 8 0 0 0 10.291 5.65l14.28-4.76 2.23 28.99-3.451-10.35a8 8 0 0 0 -11.167-4.625l-8.844 4.422-28.423-56.845a8 8 0 0 0 -12-2.789l-17.855-47.618 10.367-10.368 12.573 50.293a8 8 0 0 0 5.625 5.77z"/></g></svg>