<?xml version="1.0"?>
<svg xmlns="http://www.w3.org/2000/svg" xmlns:xlink="http://www.w3.org/1999/xlink" xmlns:svgjs="http://svgjs.com/svgjs" version="1.1" width="512" height="512" x="0" y="0" viewBox="0 0 403.486 403.486" style="enable-background:new 0 0 512 512" xml:space="preserve" class=""><g><g xmlns="http://www.w3.org/2000/svg"><g><path d="m144.124 93.04h111.896s9.23 68.345 130.306 174.355v69.842h-98.128l-52.432-74.831-78.921-77.874c0 .001-12.373-58.217-12.721-91.492z" fill="#979a1b" data-original="#f7be56" style="" class=""/><path d="m144.124 93.04c-39.909 99.774-144.124 175.702-144.124 175.702v68.694h288.197v-68.694s-104.114-75.779-144.073-175.702z" fill="#dbe008" data-original="#fcd462" style="" class=""/><path d="m150.21 213.517-36.618 123.87h36.618 36.967z" fill="#183852" data-original="#64798a" style="" class=""/><path d="m403.486 122.473c-6.679 24.794-32.193 39.481-56.987 32.802s-39.481-32.193-32.802-56.987c4.122-15.306 15.759-27.457 30.873-32.238-14.096 17.69-11.184 43.459 6.507 57.555 15.455 12.318 37.5 11.841 52.409-1.132z" fill="#a29e93" data-original="#ededed" style="" class=""/></g></g></g></svg>
