<?xml version="1.0" encoding="iso-8859-1"?>
<!-- Generator: Adobe Illustrator 19.0.0, SVG Export Plug-In . SVG Version: 6.00 Build 0)  -->
<svg version="1.1" id="Capa_1" xmlns="http://www.w3.org/2000/svg" xmlns:xlink="http://www.w3.org/1999/xlink" x="0px" y="0px"
	 viewBox="0 0 420.864 420.864" style="enable-background:new 0 0 420.864 420.864;" xml:space="preserve">
<g>
	<g>
		<path d="M415.744,376.937h-50.688v-0.512L217.088,81.001l19.968-39.936c1.024-2.56,0.512-5.632-2.048-6.656
			c-2.56-1.024-5.632,0-6.656,2.048l-16.896,33.28l-16.896-33.28c-1.024-2.56-4.096-3.584-6.656-2.048
			c-2.56,1.024-3.584,4.096-2.048,6.656l19.456,38.912L56.832,376.425v0.512H5.12c-3.072,0-5.12,2.048-5.12,5.12
			c0,3.072,2.048,5.12,5.12,5.12h410.624c3.072,0,5.12-2.048,5.12-5.12C420.864,379.497,418.816,376.937,415.744,376.937z
			 M151.04,376.937l59.904-118.784l59.904,118.784H151.04z M282.624,376.937l-66.56-132.096c-1.536-3.584-7.168-3.584-9.216,0
			l-67.072,132.096h-71.68L210.944,91.241l142.848,285.696H282.624z"/>
	</g>
</g>
<g>
</g>
<g>
</g>
<g>
</g>
<g>
</g>
<g>
</g>
<g>
</g>
<g>
</g>
<g>
</g>
<g>
</g>
<g>
</g>
<g>
</g>
<g>
</g>
<g>
</g>
<g>
</g>
<g>
</g>
</svg>
