<svg height="512" viewBox="0 0 512 512" width="512" xmlns="http://www.w3.org/2000/svg"><g id="filled_outline" data-name="filled outline"><path d="m384 264a16 16 0 0 1 16 16v24a0 0 0 0 1 0 0h-32a0 0 0 0 1 0 0v-24a16 16 0 0 1 16-16z" fill="#d18d28"/><path d="m136 469a8 8 0 0 1 -8-8v-72a8 8 0 0 1 16 0v72a8 8 0 0 1 -8 8z" fill="#d18d28"/><path d="m184 376 8 88h80v-72l-8-32v-24h-80z" fill="#0276b4"/><path d="m264 336h-62.64v-160.516h41.985a20.655 20.655 0 0 1 20.655 20.655z" fill="#eaeae8"/><path d="m264 304v32h-48v-64z" fill="#eaeae8"/><path d="m104 160h32v80h-32z" fill="#ea9d2d"/><path d="m248 176 8-24-19-2-21-14-16 32 8 16z" fill="#f6bb92"/><path d="m272 152h-32l-24-16v-24l16-24h40z" fill="#fdc9a6"/><path d="m240 176a24 24 0 0 1 24 24v104a0 0 0 0 1 0 0h-22a26 26 0 0 1 -26-26v-78a24 24 0 0 1 24-24z" fill="#0bafea"/><path d="m176 168a40 40 0 0 1 40 40v144a24 24 0 0 1 -24 24h-56a0 0 0 0 1 0 0v-168a40 40 0 0 1 40-40z" fill="#027e2a"/><path d="m136 296h80a0 0 0 0 1 0 0v56a24 24 0 0 1 -24 24h-56a0 0 0 0 1 0 0v-80a0 0 0 0 1 0 0z" fill="#029532"/><path d="m118 232h18a0 0 0 0 1 0 0v144a0 0 0 0 1 0 0 48 48 0 0 1 -48-48v-66a30 30 0 0 1 30-30z" fill="#02a437"/><path d="m232 40a40 40 0 0 1 40 40v8a0 0 0 0 1 0 0h-80a0 0 0 0 1 0 0v-8a40 40 0 0 1 40-40z" fill="#0bafea"/><path d="m192 88v32l24 16v-24l16-24z" fill="#683b0d"/><circle cx="120" cy="160" fill="#d18d28" r="16"/><path d="m416 408h-64l-4.361-10.9a78.34 78.34 0 0 1 0-58.194l4.361-10.906h64l4.361 10.9a78.34 78.34 0 0 1 0 58.194z" fill="#eaeae8"/><path d="m416 440h-64a35.778 35.778 0 0 1 0-32h64a35.778 35.778 0 0 1 0 32z" fill="#ea9d2d"/><path d="m376.085 408a27.6 27.6 0 0 1 -3.449-34.827l3.449-5.173-.042 7.915a8.042 8.042 0 0 0 8.042 8.085 27.315 27.315 0 0 0 8-19.314v-12.686l10.887 21.774a27.6 27.6 0 0 1 1.5 21.072l-4.387 13.154z" fill="#e82f3e"/><path d="m416.006 328a8 8 0 0 1 -3.584-15.157l11.578-5.787v-49.368a40 40 0 0 0 -80 0v49.368l11.578 5.789a8 8 0 1 1 -7.156 14.31l-16-8a8 8 0 0 1 -4.422-7.155v-54.312a56 56 0 0 1 112 0v54.312a8 8 0 0 1 -4.422 7.155l-16 8a7.976 7.976 0 0 1 -3.572.845z" fill="#cbcbcb"/><circle cx="248" cy="104" fill="#683b0d" r="8"/><path d="m168 445c-22.43 0-40-24.6-40-56s17.57-56 40-56 40 24.6 40 56-17.57 56-40 56zm0-96c-13.009 0-24 18.317-24 40s10.991 40 24 40 24-18.317 24-40-10.991-40-24-40z" fill="#ea9d2d"/><path d="m168 264h16a32 32 0 0 1 32 32 16 16 0 0 1 -16 16h-48a16 16 0 0 1 -16-16 32 32 0 0 1 32-32z" fill="#02a437"/><path d="m264 304 72-56h20.611a4 4 0 0 0 3.946-3.342l6.667-40a4 4 0 0 0 -3.946-4.658h-27.278l-16 16-56 32z" fill="#fdc9a6"/><path d="m384 296a32 32 0 0 1 32 32 0 0 0 0 1 0 0h-64a0 0 0 0 1 0 0 32 32 0 0 1 32-32z" fill="#ea9d2d"/><path d="m120 136a24.026 24.026 0 0 0 -23.938 22.369 8.079 8.079 0 0 0 -.062.951v71.726a37.97 37.97 0 0 0 -16 30.954v66a56.077 56.077 0 0 0 48.19 55.444c-.123 1.826-.19 3.678-.19 5.556v72a8 8 0 0 0 16 0v-26.909c6.643 6.878 14.923 10.909 24 10.909a30.7 30.7 0 0 0 13.933-3.369l2.1 23.094a8 8 0 0 0 7.967 7.275h80a8 8 0 0 0 8-8v-72a7.977 7.977 0 0 0 -.239-1.94l-7.761-31.044v-51.1l56-43.555v47.639a8 8 0 0 0 4.422 7.155l11.7 5.851c-.034.448-.064.9-.082 1.35l-3.831 9.577a85.975 85.975 0 0 0 0 64.134l3.118 7.8a44 44 0 0 0 1.516 35.716 8 8 0 0 0 7.157 4.417h64a8 8 0 0 0 7.155-4.422 44 44 0 0 0 1.516-35.716l3.118-7.8a85.975 85.975 0 0 0 0-64.134l-3.831-9.577c-.018-.453-.048-.9-.082-1.35l11.7-5.851a8 8 0 0 0 4.424-7.15v-54.312a55.951 55.951 0 0 0 -64.279-55.353l.17-1.02a8 8 0 0 0 -7.891-9.315h-32a8 8 0 0 0 -5.657 2.343l-15.243 15.243-43.1 24.628v-34.214a32 32 0 0 0 -14.618-26.847l4.384-13.153h10.234a8 8 0 0 0 8-8v-56h16a8 8 0 0 0 0-16h-16a48 48 0 0 0 -96 0v40a8 8 0 0 0 3.562 6.656l18.124 12.083-12.272 24.544a47.866 47.866 0 0 0 -49.414 8.979v-12.262a24.027 24.027 0 0 0 -24-24zm0 16a8 8 0 1 1 -8 8 8.009 8.009 0 0 1 8-8zm-8 30.624a23.944 23.944 0 0 0 16 0v41.376h-10a38.161 38.161 0 0 0 -6 .478zm128 1.376a16.019 16.019 0 0 1 16 16v96h-14a18.021 18.021 0 0 1 -18-18v-78a16.019 16.019 0 0 1 16-16zm-55.891 184h-36.409c4.294-11.309 11.87-19 20.3-19s16 7.691 20.3 19zm-16.109-35c-9.077 0-17.357 4.031-24 10.909v-25.285a23.885 23.885 0 0 0 8 1.376h48a23.885 23.885 0 0 0 8-1.376v33.376a15.933 15.933 0 0 1 -4.427 11.018c-6.585-17.977-19.886-30.018-35.573-30.018zm56-26.175a33.789 33.789 0 0 0 18 5.175h14v16h-32zm-24-2.825h-48a8.009 8.009 0 0 1 -8-8 24.027 24.027 0 0 1 24-24h16a24.027 24.027 0 0 1 24 24 8.009 8.009 0 0 1 -8 8zm-104 24v-66a22.025 22.025 0 0 1 22-22h10v127.2a40.067 40.067 0 0 1 -32-39.2zm72 101c-13.009 0-24-18.317-24-40 0-1.691.074-3.357.2-5h32.49l3.563 39.191c-3.609 3.673-7.813 5.809-12.253 5.809zm96 27h-64.694l-2.525-27.768c6.973-10.032 11.219-23.807 11.219-39.232a81.521 81.521 0 0 0 -.5-9.017 32.02 32.02 0 0 0 16.5-27.983v-8h32v16c0 .654 8 32.984 8 32.984zm138.972-82.226-10.887-21.774v12.686a27.315 27.315 0 0 1 -8 19.314 8.041 8.041 0 0 1 -8.042-8.084l.042-7.916-3.449 5.173a27.6 27.6 0 0 0 -2.113 26.827h-13.106l-2.351-5.874a70.061 70.061 0 0 1 0-52.252l2.351-5.874h53.166l2.351 5.874a70.061 70.061 0 0 1 0 52.252l-2.351 5.874h-7.832l1.718-5.154a27.6 27.6 0 0 0 -1.497-21.072zm-10.972-84.969a40.154 40.154 0 0 0 -16 0v-8.805a8 8 0 0 1 16 0zm-8 15.195a24.042 24.042 0 0 1 22.629 16h-45.258a24.042 24.042 0 0 1 22.629-16zm26.6 128h-53.19a28.021 28.021 0 0 1 0-16h53.19a28.021 28.021 0 0 1 0 16zm-42.7-182.685 5.01-30.057a40 40 0 0 1 51.1 38.43v49.368l-4.621 2.31a40.278 40.278 0 0 0 -11.389-13.344v-16.022a24 24 0 0 0 -48 0v16.022a40.278 40.278 0 0 0 -11.379 13.344l-4.621-2.31s.029-50.493.053-51.056h15.947a8 8 0 0 0 7.891-6.685zm-43.922-26.369a8.05 8.05 0 0 0 1.688-1.289l13.648-13.657h19.242l-5.333 32h-17.223a8 8 0 0 0 -4.912 1.686l-59.088 45.957v-35zm-99.978-108.524 12.281-18.422h27.719v48h-21.578l-18.422-12.281zm8-66.422a32.036 32.036 0 0 1 32 32h-64a32.036 32.036 0 0 1 32-32zm-32 48h17.052l-7.708 11.562a8 8 0 0 0 -1.344 4.438v9.052l-8-5.333zm19.1 51.683 16.459 10.973a8 8 0 0 0 4.441 1.344h4.9l-2.7 8.084c-.73-.049-1.464-.084-2.206-.084a31.951 31.951 0 0 0 -25 12.064 48.4 48.4 0 0 0 -7.824-8.52zm-43.1 28.317a32.036 32.036 0 0 1 32 32v56.022a39.788 39.788 0 0 0 -24-8.022h-16a39.788 39.788 0 0 0 -24 8.022v-56.022a32.036 32.036 0 0 1 32-32z"/><circle cx="248" cy="104" r="8"/></g></svg>